{
    "asset" : {
        "generator" : "Khronos glTF Blender I/O v1.5.17",
        "version" : "2.0"
    },
    "scene" : 0,
    "scenes" : [
        {
            "name" : "Scene",
            "nodes" : [
                0
            ]
        }
    ],
    "nodes" : [
        {
            "mesh" : 0,
            "name" : "Sphere",
            "scale" : [
                5.817206382751465,
                5.817206382751465,
                5.817206382751465
            ],
            "translation" : [
                0,
                3.742661237716675,
                0
            ]
        }
    ],
    "animations" : [
        {
            "channels" : [
                {
                    "sampler" : 0,
                    "target" : {
                        "node" : 0,
                        "path" : "rotation"
                    }
                }
            ],
            "name" : "SphereAction",
            "samplers" : [
                {
                    "input" : 4,
                    "interpolation" : "LINEAR",
                    "output" : 5
                }
            ]
        }
    ],
    "materials" : [
        {
            "doubleSided" : true,
            "name" : "Material.004",
            "pbrMetallicRoughness" : {
                "baseColorFactor" : [
                    0.800000011920929,
                    0.800000011920929,
                    0.800000011920929,
                    1
                ],
                "roughnessFactor" : 0
            }
        }
    ],
    "meshes" : [
        {
            "name" : "Sphere.001",
            "primitives" : [
                {
                    "attributes" : {
                        "POSITION" : 0,
                        "NORMAL" : 1,
                        "TEXCOORD_0" : 2
                    },
                    "indices" : 3,
                    "material" : 0
                }
            ]
        }
    ],
    "accessors" : [
        {
            "bufferView" : 0,
            "componentType" : 5126,
            "count" : 27072,
            "max" : [
                1.1450711488723755,
                1.145379662513733,
                1.1450711488723755
            ],
            "min" : [
                -1.145072102546692,
                -1.145379662513733,
                -1.145071268081665
            ],
            "type" : "VEC3"
        },
        {
            "bufferView" : 1,
            "componentType" : 5126,
            "count" : 27072,
            "type" : "VEC3"
        },
        {
            "bufferView" : 2,
            "componentType" : 5126,
            "count" : 27072,
            "type" : "VEC2"
        },
        {
            "bufferView" : 3,
            "componentType" : 5123,
            "count" : 40320,
            "type" : "SCALAR"
        },
        {
            "bufferView" : 4,
            "componentType" : 5126,
            "count" : 698,
            "max" : [
                29.291666666666668
            ],
            "min" : [
                0.25
            ],
            "type" : "SCALAR"
        },
        {
            "bufferView" : 5,
            "componentType" : 5126,
            "count" : 698,
            "type" : "VEC4"
        }
    ],
    "bufferViews" : [
        {
            "buffer" : 0,
            "byteLength" : 324864,
            "byteOffset" : 0
        },
        {
            "buffer" : 0,
            "byteLength" : 324864,
            "byteOffset" : 324864
        },
        {
            "buffer" : 0,
            "byteLength" : 216576,
            "byteOffset" : 649728
        },
        {
            "buffer" : 0,
            "byteLength" : 80640,
            "byteOffset" : 866304
        },
        {
            "buffer" : 0,
            "byteLength" : 2792,
            "byteOffset" : 946944
        },
        {
            "buffer" : 0,
            "byteLength" : 11168,
            "byteOffset" : 949736
        }
    ],
    "buffers" : [
        {
            "byteLength" : 960904,
            "uri" : "data:application/octet-stream;base64,"
        }
    ]
}
